<svg xmlns="http://www.w3.org/2000/svg" viewBox="1112 1668 904 574">
<path fill="#1f1f1d" d="M1795.4 1703
c4.7-12.3 13.2-26 28-26.4 13.5-.8 23 10.5 27.3 22.2 16.9 1.9 23.2-24.3 40.7-17.6 15 6.8 14.2 26.9 8.8 39.8 12.3 14 28.7 24.4 38.3 40.6 5.5 9.4 4.5 20.7 8.3 30.6 15.5 22 40.9 33.8 59.9 52.2
a115 115 0 0 1-38 43.2
c-17.6 9.2-38.2.9-57 5.5-13.8 3-22.7 15.2-35.3 20.9-4.9-3.4-10.3-9.1-16.7-6.2-6.6 4.1-12.3 9.8-20.3 10.8-.3-2-1-5.8-1.2-7.8-9.6 5.8-17.9 13.4-26.4 20.6l-4.6-6.8
c-9.2 5.7-22.6 9.2-25.4 21.3-2.7 13.8-5 27.7-8.3 41.5-1.8 8.5-5 17.4-2 26.1 10.3 31.9 35.3 56.6 45.6 88.3 5 23.9-2.4 48.5-13.7 69.4-9 16.8-26 30.6-45.5 31.4-7.4.4-13.8-4-19.5-8.1
l6.3-5.6-10.4-7.8q4.7-3.7 9.2-7.9a100 100 0 0 1 8.6-35.5c-12.4-10.7-28.4-15.6-41-25.8l-4.5 6.4a107 107 0 0 1-25.9-30.2
c-2.8-6.6-7.3-14.1-3.5-21.2 7.6-18.2 21.5-33 30.3-50.5 9-18 16.9-36.7 20.1-56.6-11.5 25-23.7 50-39.8 72.5-8.4 12.8-19.3 25-21.7 40.7-7.8 35.2-16 71.8-8.8 107.7 3.1 13.2 18.7 11 28.9 14.2 14.2 3 31.6 13.3 29.8 30-10.3 1.3-19 8.5-29.8 7.3-26.4-.2-53.5 1.7-79.2-5-17.4-5.3-17.4-26.3-25.4-39.6-4.1-9.9-16.5-12.3-20.2-22.4-6.3-14.1-7.1-29.8-10.5-44.7
l-6 4.2a620 620 0 0 1-2-32.2l-7.6 2.3
c-2.7-20.3.4-40.6 3.2-60.7-1.1-23.6-1-47.3 2.2-70.8-9.7 18.9-11.9 40.2-12.8 61.1-.8 5.3 0 13.2-7 14.5-33 12-67.7 21.1-103 23.1-32 1-64.1-3.4-95-11.2 4.3-18 11.4-35.8 11-54.6-5.7 12.1-9.7 24.9-14.8 37.3-11.6 29.5-29.7 56-49 81.1-15 19.7-34.3 35.7-51.7 53.3-5.5 5-4.4 13.3-4.4 20.2 9.2 5.6 20.9 6.3 29.3 13.5 6.3 4.9 13 14.1 8 22.2-13.3 6.3-28.5 5.6-43 6-16-.7-33.3.8-47.6-7.9-15.4-9.5-25.2-25.3-34.7-40.2-7.7-10.8-4.5-24.7-2.3-36.8 6.7-26.7 16.3-52.7 22.7-79.6
l-9.7 2c4-10 9.2-20 10.3-31-3.6-22.4-7.4-45-7.6-67.7.4-23.2 3.8-46.1 8.4-68.8l-8.5 1
c-10.7-11.1-7.4-27.4-4-40.9 6.7-25 25.3-44.3 44-61.2 21-19.3 39.7-41.6 63.7-57.5a237 237 0 0 1 102.6-36.5c51.5-5.8 102.9 3.5 153.6 11 27 4.3 55.5 2.3 80-10.5
a16 16 0 0 0 7.5-7.9c6.8-2.4 17.4-.6 19.6-9.4q10.2-.1 20.5 0l-1.7-6.5c18.1 1.8 36.7 4.3 52.8 13.4 14 6.5 27.9 17.3 44.2 14.3 24.3-3 48.6-8.2 73.2-6Z"/>
<path fill="#1f1f1d" d="M1291.7 2102.9c9.3-14.4 19.7-28.2 27.6-43.6a330 330 0 0 0 105.4 9.9c-1.3 14.2-2.6 28.8-8.1 42a102 102 0 0 0-6.8 26.2l-4.6-2q-1.2 10.4-2.8 20.7l-5.8 4
c.3 6.3-4.4 16.2 4.4 18.2 16.3 5.6 40.4 13.5 39 34.8-11.8 6.2-25.8 4.9-38.7 5.4-23.8.1-47.9 1.7-71.2-3.2-9.3-1.8-18.4-8-20.4-17.6-6.1-24-4.1-49.5-12-73.2-2.2-7.2-5.5-14-6-21.6"/>
</svg>