<svg xmlns="http://www.w3.org/2000/svg" viewBox="3468 874 508 660">
<path fill="#1f1f1d" d="M3797.5 911.2c24.5-20.6 57.7-32 89.8-27.2 18.4 2 38.7 8.3 49.3 24.8 5.8 8.4 17 10.7 22.7 19.4 9.2 11.6 9.8 30.4-1.7 40.6l-3.6-13.4
c-9.8.5-20.8-1.8-29.2 4.5-12.6 8.6-21.9 24.5-17.7 40a277 277 0 0 1 7.3 46.7c.2 12.1 11.6 20.2 13 32 5.1 33-6.3 66-20.7 95.4-11.3 20.5-22.7 42.2-42 56.4
a128 128 0 0 0-35.4 52.4
c-7.2 18.2-16 35.6-23.7 53.5 7.9 13.8 11.8 31.2 25.8 40.3 15 5.5 32.4 2 47.3 8.5 11.4 6.5 13.6 21.8 7.5 32.6-2.2-4.8-3-10.5-6.6-14.5-6.4-3.2-13.4-4.5-20-6.6 11.5 9.5 15.6 30 1.3 39.2-1.6-5.9 2.4-15-4.6-18.2-16-9.8-31.5-25.1-52-21.8 7.3 2.9 15 4.6 22.2 8 10.7 6.8 12.7 22.9 4.6 32.5-2.6-4.4-2.8-10.4-6.7-13.9-8.2-4-17-6.9-25.5-10 6.1 8 15 15.5 14.5 26.5
a27 27 0 0 1-10.4 25c-.5-6.5-.3-13-.3-19.5-16.2-9.5-24.2-29.8-43.2-34.7-16.2-2-30.6 9.2-46.9 6.8l-5.1 14.2c-8.8-8.6-6.1-24 4-30.3 8.7-7.4 20.7-4.7 30.6-8.6
a11 11 0 0 0 1.2-11.9c-3.5-10-9.3-18.9-14.4-28l-13 12q-5-10.7-10.8-21l-6 7.8-6.6-4c-11.7 10.6-25.6 19.1-35.2 31.7a1814 1814 0 0 1-47.7 84
c-13.3 21.2-28 44.9-53.1 53-13.5.1-23.8 14.1-37.7 9.6-6-1.8-3.9-9.5-3.7-14.1-6.3 0-16.6-1.2-14.7-10 4.4-18.5 15.7-34.5 24-51.4 14.5-29.4 33.1-56.6 46.5-86.6-27.5 22.4-46.8 52.6-70.2 78.8 2-15 8.7-28.6 13.7-42.6-11.4 11-22.2 23.4-36.6 30.8-1-23.7 13.6-44 25.8-63.2 18-27.7 41.1-52 57-81.2-2 2-6 6-7.9 8.1-2-23.2 11.4-43.2 21.2-63 10-20.4 23.2-39 31.1-60.4
a308 308 0 0 1 50-88c16.9-19 35-37 55.7-51.8 32.6-21.2 55.4-54 74.8-87l-6.3.3c7.8-11.7 17.8-21.6 27.6-31.6l-9.3-.7Z"/>
<path fill="#fff" d="M3755.1 1038.2c18.6-10.2 42.3-13.6 61.8-3.7a39 39 0 0 1 20 26.7
c4.7 20 1.4 41-5.2 60.3-9 27.7-26 51.8-43.4 74.9-13.5 16.4-27.6 33-46.2 44 9.3-13 21.7-23.4 31-36.5 18.3-25 36.2-50.8 48.3-79.5 8.2-20.4 13-43.5 6.6-65-4-14.6-18.9-23.3-33-25-13.5-2.2-26.8 1.4-40 4
Z"/>
<path fill="#fff" d="M3652.4 1302.3c16.8-11.8 31.5-26.3 48.5-37.7-11.4 18-28.4 31.5-45.4 43.9a407 407 0 0 1-61.5 36.4c19-14.7 39.4-27.7 58.4-42.6"/>
<path fill="#fff" d="M3754.8 1343.8c.5-8.3 4.1-16 7.4-23.5l13.2 25 7.3-5.6a132 132 0 0 1 16.8 37.3 185 185 0 0 1-26.7 7.4c-6.7-13.2-15.3-25.9-18-40.6"/>
</svg>