<svg xmlns="http://www.w3.org/2000/svg" viewBox="3354 60 730 678">
<path fill="#1f1f1d" d="M4019.8 73.6c3.7-4.3 11-8.6 15.7-3a66 66 0 0 1 12 20.7c5.7 14.5.5 30.2-.7 45a58 58 0 0 0 14.5-11.2
c7 .4 13.7 4.6 14 12.1 2.6 20.4-18.2 31.7-25 48.7-7 16.8-15 34.7-11.3 53.3 2.8 17 5 34.2 4.8 51.5l-6.2-1.7c1 14.4 1.5 28.8.4 43l-8.3-4.6
c-1.6 12.8-2.8 26.3-9.2 37.8-5.8 10.1-8.4 21.7-14.4 31.7-9 13.4-7.4 30.6-14.8 44.8-8.5 23.4-32.5 37.8-38 62.7-9.7 38.1-12 77.6-15 116.7a121 121 0 0 0 9.6 55.9
c13.4.5 28.7 8.3 31.5 22.5 2.5 9.9-9.8 12.3-17 12.2-13.8-.2-30 2-40.9-8-8.4-9.3-9.1-22.5-12.2-33.9-2.1-10.2-11.4-18.2-9.6-29.2 4-32-4.4-63.5-7.7-95-2.3-17 10.4-30.8 15.1-46.3-9.9 11.7-20.2 24.2-22.4 39.8-4.8 30.4-4 61.2-5.5 91.8-1.4 20.9-.2 42.4 7.5 62 9 3.1 19.7 5.8 24.9 14.8 4.7 6 4.5 19.1-5.3 19.3-16.8 1.3-36.5 4.8-51.1-5.5-10.7-14-7.5-33.7-17.2-48.3-8.7-12.8-.5-28.4-1.4-42.5-1.3-32.3-11.5-63.3-11.7-95.7
l-7.8 3.7q1.3-11.3 3.1-22.3c-21.6 8.9-45.4 2.9-68 6.5l.2-8.3a494 494 0 0 1-22.4-4.1
c-5.5 17.8-12.3 35.6-24.8 49.9-14.6 19-36.9 30.3-51.6 49-13 18-3.5 41.2 7.8 57.2 7.4 13.8 26.7 7.8 35.9 19.7 6 5 7.7 19.4-3 19.6-17 .7-37.3 4.3-51.6-7.4-14.4-18.3-21.2-41.3-33.5-61.1-4.7-8.7-12.7-19.4-6.7-29.4 8.9-13.9 21.2-26 25.5-42.5 1.5-7.6 8.6-11.6 13.5-17 20.5-20 28-48.8 34.5-75.7-7.2 11.4-11.4 24.4-17.5 36.5
a154 154 0 0 1-63.5 68.5c-17.3 10.7-37.6 17.5-51.2 33.2a106 106 0 0 0-25.3 76.4
c10 3 21.9 9.5 21.3 21.7 2.8 11.4-11 12-18.6 12.2-11.7 0-26.4 2.8-35.4-6.5-8-19.4-3.5-41-.6-61.1 3.5-17.3 4.4-34.9 7-52.2 2.1-12.5 15.8-16.6 23.3-25.2 20.3-18.2 26.1-47.3 23.9-73.5-9.3 15.8-16.8 32.7-27.3 47.7
q-3 5.5-9.6 3.4a99 99 0 0 1-46 28c1-2.4 3.3-7.2 4.5-9.6a133 133 0 0 1-41 10.8l.6-6.2c-20 4.7-41.8 0-57.4-13.6l19-4.7-7.5-6.8c13.1-7.4 25.5-16.1 38.4-23.9l-9.5-1
c16-12.3 35.3-19.2 52.6-29.4 13.5-8.2 24-20.2 34.5-32l-3-3.4q16.9-23.5 33.3-47.2a177 177 0 0 1 81.2-72.2
c21-9.3 42.8-17.6 65.9-19.5 31.6-2.4 63.2-5.8 94.4-11.7 14.6-2.7 26.8-11.7 40.5-17 12.7-5.1 27.2-5.8 38.8-13.8l-10.7-6.3
c22.1-9 36-30.5 50.7-48.6-10.4-4.7-22-9-29-18.6-3.3-4.6 2.4-8.3 5.9-10.5 13.6-7.2 27.7-13.4 41.7-20 11.3-4.6 16-17 24.2-25.3 11-11.8 22-26.2 39-28.9 7.5-2.2 16.8-1.2 22.3-7.8 12.2-13 22.4-27.8 34-41.3
Z"/>
</svg>